<svg width="175" height="51" viewBox="0 0 175 51" fill="none" xmlns="http://www.w3.org/2000/svg">
<path d="M0 2.48989C8.64552 2.42109 17.2823 2.53289 25.9279 2.42969C25.9279 2.67908 25.9279 3.17788 25.9279 3.42727C17.291 3.34127 8.64552 3.41867 0 3.38427V2.48989Z" fill="#0065B2"/>
<path d="M27.373 4.57192C30.9062 4.50312 34.4357 4.61492 37.9688 4.51172C37.9688 4.76111 37.9688 5.25991 37.9688 5.5093C34.4393 5.4233 30.9062 5.5007 27.373 5.4663V4.57192Z" fill="#0065B2"/>
<path d="M27.373 6.67739C30.9062 6.60859 34.4357 6.72039 37.9688 6.61719C37.9688 6.86658 37.9688 7.36538 37.9688 7.61477C34.4393 7.52877 30.9062 7.60617 27.373 7.57177V6.67739Z" fill="#0065B2"/>
<path d="M27.373 8.78481C33.7309 8.71601 40.0824 8.82781 46.4402 8.72461C46.4402 8.97401 46.4402 9.4728 46.4402 9.72219C40.0888 9.6362 33.7309 9.71359 27.373 9.67919V8.78481Z" fill="#0065B2"/>
<path d="M39.8252 4.57192C42.031 4.50312 44.2347 4.61492 46.4405 4.51172C46.4405 4.76111 46.4405 5.25991 46.4405 5.5093C44.2369 5.4233 42.031 5.5007 39.8252 5.4663V4.57192Z" fill="#0065B2"/>
<path d="M50.6368 4.57192C54.3383 4.50312 58.0361 4.61492 61.7376 4.51172C61.7376 4.76111 61.7376 5.25991 61.7376 5.5093C58.0398 5.4233 54.3383 5.5007 50.6368 5.4663V4.57192Z" fill="#0065B2"/>
<path d="M64.0709 4.57192C67.7724 4.50312 71.4702 4.61492 75.1717 4.51172C75.1717 4.76111 75.1717 5.25991 75.1717 5.5093C71.4739 5.4233 67.7724 5.5007 64.0709 5.4663V4.57192Z" fill="#0065B2"/>
<path d="M77.5049 4.57192C81.6878 4.50312 85.8666 4.61492 90.0495 4.51172C90.0495 4.76111 90.0495 5.25991 90.0495 5.5093C85.8708 5.4233 81.6878 5.5007 77.5049 5.4663V4.57192Z" fill="#0065B2"/>
<path d="M93.3768 4.57192C97.2961 4.50312 101.211 4.61492 105.131 4.51172C105.131 4.76111 105.131 5.25991 105.131 5.5093C101.215 5.4233 97.2961 5.5007 93.3768 5.4663V4.57192Z" fill="#0065B2"/>
<path d="M108.187 4.57192C116.492 4.50312 124.79 4.61492 133.096 4.51172C133.096 4.76111 133.096 5.25991 133.096 5.5093C124.798 5.4233 116.492 5.5007 108.187 5.4663V4.57192Z" fill="#0065B2"/>
<path d="M146.922 4.57192C150.681 4.50312 154.435 4.61492 158.194 4.51172C158.194 4.76111 158.194 5.25991 158.194 5.5093C154.439 5.4233 150.681 5.5007 146.922 5.4663V4.57192Z" fill="#0065B2"/>
<path d="M146.922 6.65004C155.849 6.58124 164.767 6.69304 173.694 6.58984C173.694 6.83924 173.694 7.33803 173.694 7.58743C164.776 7.50143 155.849 7.57883 146.922 7.54443V6.65004Z" fill="#0065B2"/>
<path d="M146.922 8.72011C156.284 8.65131 165.637 8.76311 175 8.65991C175 8.90931 175 9.4081 175 9.6575C165.647 9.5715 156.284 9.6489 146.922 9.6145V8.72011Z" fill="#0065B2"/>
<path d="M146.922 10.8883C156.284 10.8195 165.638 10.9313 175 10.8281C175 11.0775 175 11.5763 175 11.8257C165.647 11.7397 156.284 11.8171 146.922 11.7827V10.8883Z" fill="#0065B2"/>
<path d="M146.922 12.8864C150.68 12.8176 154.434 12.9294 158.192 12.8262C158.192 13.0756 158.192 13.5744 158.192 13.8238C154.438 13.7378 150.68 13.8152 146.922 13.7808V12.8864Z" fill="#0065B2"/>
<path d="M163.729 12.8864C167.488 12.8176 171.242 12.9294 175 12.8262C175 13.0756 175 13.5744 175 13.8238C171.246 13.7378 167.488 13.8152 163.729 13.7808V12.8864Z" fill="#0065B2"/>
<path d="M146.922 15.0954C150.68 15.0266 154.434 15.1384 158.192 15.0352C158.192 15.2846 158.192 15.7833 158.192 16.0327C154.438 15.9467 150.68 16.0241 146.922 15.9897V15.0954Z" fill="#0065B2"/>
<path d="M163.73 15.0954C167.488 15.0266 171.242 15.1384 175 15.0352C175 15.2846 175 15.7833 175 16.0327C171.246 15.9467 167.488 16.0241 163.73 15.9897V15.0954Z" fill="#0065B2"/>
<path d="M146.922 17.2047C150.68 17.1359 154.434 17.2477 158.192 17.1445C158.192 17.3939 158.192 17.8927 158.192 18.1421C154.438 18.0561 150.68 18.1335 146.922 18.0991V17.2047Z" fill="#0065B2"/>
<path d="M163.729 17.2047C167.488 17.1359 171.242 17.2477 175 17.1445C175 17.3939 175 17.8927 175 18.1421C171.246 18.0561 167.488 18.1335 163.729 18.0991V17.2047Z" fill="#0065B2"/>
<path d="M146.922 19.2982C150.68 19.2294 154.434 19.3412 158.192 19.238C158.192 19.4874 158.192 19.9862 158.192 20.2356C154.438 20.1496 150.68 20.227 146.922 20.1926V19.2982Z" fill="#0065B2"/>
<path d="M163.73 19.2982C167.488 19.2294 171.242 19.3412 175 19.238C175 19.4874 175 19.9862 175 20.2356C171.246 20.1496 167.488 20.227 163.73 20.1926V19.2982Z" fill="#0065B2"/>
<path d="M146.922 21.3922C150.68 21.3234 154.434 21.4352 158.192 21.332C158.192 21.5814 158.192 22.0802 158.192 22.3296C154.438 22.2436 150.68 22.321 146.922 22.2866V21.3922Z" fill="#0065B2"/>
<path d="M163.729 21.3922C167.488 21.3234 171.242 21.4352 175 21.332C175 21.5814 175 22.0802 175 22.3296C171.246 22.2436 167.488 22.321 163.729 22.2866V21.3922Z" fill="#0065B2"/>
<path d="M146.922 23.484C150.68 23.4152 154.434 23.527 158.192 23.4238C158.192 23.6732 158.192 24.172 158.192 24.4214C154.438 24.3354 150.68 24.4128 146.922 24.3784V23.484Z" fill="#0065B2"/>
<path d="M163.729 23.484C167.488 23.4152 171.242 23.527 175 23.4238C175 23.6732 175 24.172 175 24.4214C171.246 24.3354 167.488 24.4128 163.729 24.3784V23.484Z" fill="#0065B2"/>
<path d="M160.935 4.57192C164.754 4.50312 168.569 4.61492 172.388 4.51172C172.388 4.76111 172.388 5.25991 172.388 5.5093C168.573 5.4233 164.754 5.5007 160.935 5.4663V4.57192Z" fill="#0065B2"/>
<path d="M122.143 2.56215C125.795 2.49335 129.444 2.60515 133.096 2.50195C133.096 2.75135 133.096 3.25014 133.096 3.49954C129.447 3.41354 125.795 3.49094 122.143 3.45654V2.56215Z" fill="#0065B2"/>
<path d="M122.143 0.552387C125.795 0.483588 129.444 0.595386 133.096 0.492188C133.096 0.741584 133.096 1.24038 133.096 1.48977C129.447 1.40377 125.795 1.48117 122.143 1.44677V0.552387Z" fill="#0065B2"/>
<path d="M134.646 0.552387C138.298 0.483588 141.946 0.595386 145.598 0.492188C145.598 0.741584 145.598 1.24038 145.598 1.48977C141.95 1.40377 138.298 1.48117 134.646 1.44677V0.552387Z" fill="#0065B2"/>
<path d="M134.646 2.56215C138.298 2.49335 141.946 2.60515 145.598 2.50195C145.598 2.75135 145.598 3.25014 145.598 3.49954C141.95 3.41354 138.298 3.49094 134.646 3.45654V2.56215Z" fill="#0065B2"/>
<path d="M134.646 6.65004C138.298 6.58124 141.946 6.69304 145.598 6.58984C145.598 6.83924 145.598 7.33803 145.598 7.58743C141.95 7.50143 138.298 7.57883 134.646 7.54443V6.65004Z" fill="#0065B2"/>
<path d="M134.646 8.78481C138.298 8.71601 141.946 8.82781 145.598 8.72461C145.598 8.97401 145.598 9.4728 145.598 9.72219C141.95 9.6362 138.298 9.71359 134.646 9.67919V8.78481Z" fill="#0065B2"/>
<path d="M134.646 10.8883C138.298 10.8195 141.946 10.9313 145.598 10.8281C145.598 11.0775 145.598 11.5763 145.598 11.8257C141.95 11.7397 138.298 11.8171 134.646 11.7827V10.8883Z" fill="#0065B2"/>
<path d="M134.646 12.8864C138.298 12.8176 141.946 12.9294 145.598 12.8262C145.598 13.0756 145.598 13.5744 145.598 13.8238C141.95 13.7378 138.298 13.8152 134.646 13.7808V12.8864Z" fill="#0065B2"/>
<path d="M134.646 15.0954C138.298 15.0266 141.946 15.1384 145.598 15.0352C145.598 15.2846 145.598 15.7833 145.598 16.0327C141.95 15.9467 138.298 16.0241 134.646 15.9897V15.0954Z" fill="#0065B2"/>
<path d="M134.646 17.2047C138.298 17.1359 141.946 17.2477 145.598 17.1445C145.598 17.3939 145.598 17.8927 145.598 18.1421C141.95 18.0561 138.298 18.1335 134.646 18.0991V17.2047Z" fill="#0065B2"/>
<path d="M134.646 19.2982C138.298 19.2294 141.946 19.3412 145.598 19.238C145.598 19.4874 145.598 19.9862 145.598 20.2356C141.95 20.1496 138.298 20.227 134.646 20.1926V19.2982Z" fill="#0065B2"/>
<path d="M134.646 21.3922C138.298 21.3234 141.946 21.4352 145.598 21.332C145.598 21.5814 145.598 22.0802 145.598 22.3296C141.95 22.2436 138.298 22.321 134.646 22.2866V21.3922Z" fill="#0065B2"/>
<path d="M134.646 23.484C138.298 23.4152 141.946 23.527 145.598 23.4238C145.598 23.6732 145.598 24.172 145.598 24.4214C141.95 24.3354 138.298 24.4128 134.646 24.3784V23.484Z" fill="#0065B2"/>
<path d="M106.907 6.67739C111.533 6.60859 116.156 6.72039 120.783 6.61719C120.783 6.86658 120.783 7.36538 120.783 7.61477C116.16 7.52877 111.533 7.60617 106.907 7.57177V6.67739Z" fill="#0065B2"/>
<path d="M106.254 8.78481C110.663 8.71601 115.068 8.82781 119.477 8.72461C119.477 8.97401 119.477 9.4728 119.477 9.72219C115.072 9.6362 110.663 9.71359 106.254 9.67919V8.78481Z" fill="#0065B2"/>
<path d="M105.601 10.8883C109.792 10.8195 113.979 10.9313 118.171 10.8281C118.171 11.0775 118.171 11.5763 118.171 11.8257C113.983 11.7397 109.792 11.8171 105.601 11.7827V10.8883Z" fill="#0065B2"/>
<path d="M122.143 6.67739C125.795 6.60859 129.444 6.72039 133.096 6.61719C133.096 6.86658 133.096 7.36538 133.096 7.61477C129.447 7.52877 125.795 7.60617 122.143 7.57177V6.67739Z" fill="#0065B2"/>
<path d="M122.143 8.78481C125.795 8.71601 129.444 8.82781 133.096 8.72461C133.096 8.97401 133.096 9.4728 133.096 9.72219C129.447 9.6362 125.795 9.71359 122.143 9.67919V8.78481Z" fill="#0065B2"/>
<path d="M122.143 10.8883C125.795 10.8195 129.444 10.9313 133.096 10.8281C133.096 11.0775 133.096 11.5763 133.096 11.8257C129.447 11.7397 125.795 11.8171 122.143 11.7827V10.8883Z" fill="#0065B2"/>
<path d="M122.143 12.8864C125.795 12.8176 129.444 12.9294 133.096 12.8262C133.096 13.0756 133.096 13.5744 133.096 13.8238C129.447 13.7378 125.795 13.8152 122.143 13.7808V12.8864Z" fill="#0065B2"/>
<path d="M122.143 15.0954C125.795 15.0266 129.444 15.1384 133.096 15.0352C133.096 15.2846 133.096 15.7833 133.096 16.0327C129.447 15.9467 125.795 16.0241 122.143 15.9897V15.0954Z" fill="#0065B2"/>
<path d="M122.143 17.2047C125.795 17.1359 129.444 17.2477 133.096 17.1445C133.096 17.3939 133.096 17.8927 133.096 18.1421C129.447 18.0561 125.795 18.1335 122.143 18.0991V17.2047Z" fill="#0065B2"/>
<path d="M122.143 19.2982C125.795 19.2294 129.444 19.3412 133.096 19.238C133.096 19.4874 133.096 19.9862 133.096 20.2356C129.447 20.1496 125.795 20.227 122.143 20.1926V19.2982Z" fill="#0065B2"/>
<path d="M122.143 21.3922C125.795 21.3234 129.444 21.4352 133.096 21.332C133.096 21.5814 133.096 22.0802 133.096 22.3296C129.447 22.2436 125.795 22.321 122.143 22.2866V21.3922Z" fill="#0065B2"/>
<path d="M122.143 23.484C125.795 23.4152 129.444 23.527 133.096 23.4238C133.096 23.6732 133.096 24.172 133.096 24.4214C129.447 24.3354 125.795 24.4128 122.143 24.3784V23.484Z" fill="#0065B2"/>
<path d="M93.3768 6.67739C97.2961 6.60859 101.211 6.72039 105.131 6.61719C105.131 6.86658 105.131 7.36538 105.131 7.61477C101.215 7.52877 97.2961 7.60617 93.3768 7.57177V6.67739Z" fill="#0065B2"/>
<path d="M93.3768 8.78481C97.2961 8.71601 101.211 8.82781 105.131 8.72461C105.131 8.97401 105.131 9.4728 105.131 9.72219C101.215 9.6362 97.2961 9.71359 93.3768 9.67919V8.78481Z" fill="#0065B2"/>
<path d="M93.3768 10.8883C97.2961 10.8195 101.211 10.9313 105.131 10.8281C105.131 11.0775 105.131 11.5763 105.131 11.8257C101.215 11.7397 97.2961 11.8171 93.3768 11.7827V10.8883Z" fill="#0065B2"/>
<path d="M93.3768 12.8864C101.209 12.8176 109.033 12.9294 116.865 12.8262C116.865 13.0756 116.865 13.5744 116.865 13.8238C109.041 13.7378 101.209 13.8152 93.3768 13.7808V12.8864Z" fill="#0065B2"/>
<path d="M93.3768 15.0954C100.773 15.0266 108.162 15.1384 115.559 15.0352C115.559 15.2846 115.559 15.7833 115.559 16.0327C108.17 15.9467 100.773 16.0241 93.3768 15.9897V15.0954Z" fill="#0065B2"/>
<path d="M93.3768 17.2047C101.209 17.1359 109.033 17.2477 116.865 17.1445C116.865 17.3939 116.865 17.8927 116.865 18.1421C109.041 18.0561 101.209 18.1335 93.3768 18.0991V17.2047Z" fill="#0065B2"/>
<path d="M93.3768 19.2982C97.2961 19.2294 101.211 19.3412 105.131 19.238C105.131 19.4874 105.131 19.9862 105.131 20.2356C101.215 20.1496 97.2961 20.227 93.3768 20.1926V19.2982Z" fill="#0065B2"/>
<path d="M107.203 19.2982C110.861 19.2294 114.515 19.3412 118.173 19.238C118.173 19.4874 118.173 19.9862 118.173 20.2356C114.519 20.1496 110.861 20.227 107.203 20.1926V19.2982Z" fill="#0065B2"/>
<path d="M107.203 21.3922C111.296 21.3234 115.385 21.4352 119.479 21.332C119.479 21.5814 119.479 22.0802 119.479 22.3296C115.39 22.2436 111.296 22.321 107.203 22.2866V21.3922Z" fill="#0065B2"/>
<path d="M107.203 23.484C111.732 23.4152 116.256 23.527 120.785 23.4238C120.785 23.6732 120.785 24.172 120.785 24.4214C116.261 24.3354 111.732 24.4128 107.203 24.3784V23.484Z" fill="#0065B2"/>
<path d="M93.3768 21.3922C97.2961 21.3234 101.211 21.4352 105.131 21.332C105.131 21.5814 105.131 22.0802 105.131 22.3296C101.215 22.2436 97.2961 22.321 93.3768 22.2866V21.3922Z" fill="#0065B2"/>
<path d="M93.3768 23.484C97.2961 23.4152 101.211 23.527 105.131 23.4238C105.131 23.6732 105.131 24.172 105.131 24.4214C101.215 24.3354 97.2961 24.4128 93.3768 24.3784V23.484Z" fill="#0065B2"/>
<path d="M93.3768 2.56215C97.2961 2.49335 101.211 2.60515 105.131 2.50195C105.131 2.75135 105.131 3.25014 105.131 3.49954C101.215 3.41354 97.2961 3.49094 93.3768 3.45654V2.56215Z" fill="#0065B2"/>
<path d="M93.3768 0.552387C97.2961 0.483588 101.211 0.595386 105.131 0.492188C105.131 0.741584 105.131 1.24038 105.131 1.48977C101.215 1.40377 97.2961 1.48117 93.3768 1.44677V0.552387Z" fill="#0065B2"/>
<path d="M48.0332 6.67739C62.4298 6.60859 76.812 6.72039 91.2086 6.61719C91.2086 6.86658 91.2086 7.36538 91.2086 7.61477C76.8265 7.52877 62.4298 7.60617 48.0332 7.57177V6.67739Z" fill="#0065B2"/>
<path d="M47.2904 8.78481C62.1352 8.71601 76.9649 8.82781 91.8097 8.72461C91.8097 8.97401 91.8097 9.4728 91.8097 9.72219C76.9799 9.6362 62.1352 9.71359 47.2904 9.67919V8.78481Z" fill="#0065B2"/>
<path d="M39.2021 6.67739C41.6157 6.60859 44.0269 6.72039 46.4405 6.61719C46.4405 6.86658 46.4405 7.36538 46.4405 7.61477C44.0293 7.52877 41.6157 7.60617 39.2021 7.57177V6.67739Z" fill="#0065B2"/>
<path d="M0 4.57192C8.64552 4.50312 17.2823 4.61492 25.9279 4.51172C25.9279 4.76111 25.9279 5.25991 25.9279 5.5093C17.291 5.4233 8.64552 5.5007 0 5.4663V4.57192Z" fill="#0065B2"/>
<path d="M0 6.67739C8.64552 6.60859 17.2823 6.72039 25.9279 6.61719C25.9279 6.86658 25.9279 7.36538 25.9279 7.61477C17.291 7.52877 8.64552 7.60617 0 7.57177V6.67739Z" fill="#0065B2"/>
<path d="M0 8.78481C8.64552 8.71601 17.2823 8.82781 25.9279 8.72461C25.9279 8.97401 25.9279 9.4728 25.9279 9.72219C17.291 9.6362 8.64552 9.71359 0 9.67919V8.78481Z" fill="#0065B2"/>
<path d="M0 10.8883C4.16018 10.8195 8.31618 10.9313 12.4764 10.8281C12.4764 11.0775 12.4764 11.5763 12.4764 11.8257C8.32037 11.7397 4.16018 11.8171 0 11.7827V10.8883Z" fill="#0065B2"/>
<path d="M27.373 10.8883C48.8591 10.8195 70.3235 10.9313 91.8096 10.8281C91.8096 11.0775 91.8096 11.5763 91.8096 11.8257C70.3452 11.7397 48.8591 11.8171 27.373 11.7827V10.8883Z" fill="#0065B2"/>
<path d="M27.373 12.8864C48.8591 12.8176 70.3235 12.9294 91.8096 12.8262C91.8096 13.0756 91.8096 13.5744 91.8096 13.8238C70.3452 13.7378 48.8591 13.8152 27.373 13.7808V12.8864Z" fill="#0065B2"/>
<path d="M27.373 15.0954C31.525 15.0266 35.6728 15.1384 39.8248 15.0352C39.8248 15.2846 39.8248 15.7833 39.8248 16.0327C35.677 15.9467 31.525 16.0241 27.373 15.9897V15.0954Z" fill="#0065B2"/>
<path d="M63.7836 15.0954C67.7463 15.0266 71.7051 15.1384 75.6679 15.0352C75.6679 15.2846 75.6679 15.7833 75.6679 16.0327C71.7091 15.9467 67.7463 16.0241 63.7836 15.9897V15.0954Z" fill="#0065B2"/>
<path d="M46.6373 15.0954C50.6001 15.0266 54.5589 15.1384 58.5217 15.0352C58.5217 15.2846 58.5217 15.7833 58.5217 16.0327C54.5629 15.9467 50.6001 16.0241 46.6373 15.9897V15.0954Z" fill="#0065B2"/>
<path d="M46.6373 17.2047C50.6001 17.1359 54.5589 17.2477 58.5217 17.1445C58.5217 17.3939 58.5217 17.8927 58.5217 18.1421C54.5629 18.0561 50.6001 18.1335 46.6373 18.0991V17.2047Z" fill="#0065B2"/>
<path d="M63.7836 17.2047C67.7463 17.1359 71.7051 17.2477 75.6679 17.1445C75.6679 17.3939 75.6679 17.8927 75.6679 18.1421C71.7091 18.0561 67.7463 18.1335 63.7836 18.0991V17.2047Z" fill="#0065B2"/>
<path d="M47.2903 19.2982C56.7527 19.2294 66.2055 19.3412 75.6679 19.238C75.6679 19.4874 75.6679 19.9862 75.6679 20.2356C66.215 20.1496 56.7527 20.227 47.2903 20.1926V19.2982Z" fill="#0065B2"/>
<path d="M48.4279 21.4174C57.511 21.3486 66.5848 21.4604 75.6679 21.3572C75.6679 21.6066 75.6679 22.1054 75.6679 22.3548C66.594 22.2688 57.511 22.3462 48.4279 22.3118V21.4174Z" fill="#0065B2"/>
<path d="M49.9751 23.5211C54.2746 23.4523 58.5698 23.5641 62.8694 23.4609C62.8694 23.7103 62.8694 24.2091 62.8694 24.4585C58.5742 24.3725 54.2746 24.4499 49.9751 24.4155V23.5211Z" fill="#0065B2"/>
<path d="M64.1927 23.5211C67.6765 23.4523 71.1568 23.5641 74.6405 23.4609C74.6405 23.7103 74.6405 24.2091 74.6405 24.4585C71.1603 24.3725 67.6765 24.4499 64.1927 24.4155V23.5211Z" fill="#0065B2"/>
<path d="M80.9962 15.0954C84.6019 15.0266 88.204 15.1384 91.8096 15.0352C91.8096 15.2846 91.8096 15.7833 91.8096 16.0327C88.2076 15.9467 84.6019 16.0241 80.9962 15.9897V15.0954Z" fill="#0065B2"/>
<path d="M80.9962 17.2047C84.6019 17.1359 88.204 17.2477 91.8096 17.1445C91.8096 17.3939 91.8096 17.8927 91.8096 18.1421C88.2076 18.0561 84.6019 18.1335 80.9962 18.0991V17.2047Z" fill="#0065B2"/>
<path d="M80.9962 19.2982C84.6019 19.2294 88.204 19.3412 91.8096 19.238C91.8096 19.4874 91.8096 19.9862 91.8096 20.2356C88.2076 20.1496 84.6019 20.227 80.9962 20.1926V19.2982Z" fill="#0065B2"/>
<path d="M80.9962 21.3922C84.6019 21.3234 88.204 21.4352 91.8096 21.332C91.8096 21.5814 91.8096 22.0802 91.8096 22.3296C88.2076 22.2436 84.6019 22.321 80.9962 22.2866V21.3922Z" fill="#0065B2"/>
<path d="M80.9962 23.484C84.6019 23.4152 88.204 23.527 91.8096 23.4238C91.8096 23.6732 91.8096 24.172 91.8096 24.4214C88.2076 24.3354 84.6019 24.4128 80.9962 24.3784V23.484Z" fill="#0065B2"/>
<path d="M27.373 17.2047C31.2574 17.1359 35.1379 17.2477 39.0223 17.1445C39.0223 17.3939 39.0223 17.8927 39.0223 18.1421C35.1418 18.0561 31.2574 18.1335 27.373 18.0991V17.2047Z" fill="#0065B2"/>
<path d="M27.373 19.2982C31.0745 19.2294 34.7722 19.3412 38.4737 19.238C38.4737 19.4874 38.4737 19.9862 38.4737 20.2356C34.776 20.1496 31.0745 20.227 27.373 20.1926V19.2982Z" fill="#0065B2"/>
<path d="M27.373 21.4174C31.0745 21.3486 34.7722 21.4604 38.4737 21.3572C38.4737 21.6066 38.4737 22.1054 38.4737 22.3548C34.776 22.2688 31.0745 22.3462 27.373 22.3118V21.4174Z" fill="#0065B2"/>
<path d="M27.373 23.5211C31.0745 23.4523 34.7722 23.5641 38.4737 23.4609C38.4737 23.7103 38.4737 24.2091 38.4737 24.4585C34.776 24.3725 31.0745 24.4499 27.373 24.4155V23.5211Z" fill="#0065B2"/>
<path d="M0 12.9938C8.64552 12.925 17.2823 13.0368 25.9279 12.9336C25.9279 13.183 25.9279 13.6818 25.9279 13.9312C17.291 13.8452 8.64552 13.9226 0 13.8882V12.9938Z" fill="#0065B2"/>
<path d="M0 15.1247C8.64552 15.0559 17.2823 15.1677 25.9279 15.0645C25.9279 15.3138 25.9279 15.8126 25.9279 16.062C17.291 15.976 8.64552 16.0534 0 16.019V15.1247Z" fill="#0065B2"/>
<path d="M0 17.2047C8.64552 17.1359 17.2823 17.2477 25.9279 17.1445C25.9279 17.3939 25.9279 17.8927 25.9279 18.1421C17.291 18.0561 8.64552 18.1335 0 18.0991V17.2047Z" fill="#0065B2"/>
<path d="M0 19.2982C4.16018 19.2294 8.31618 19.3412 12.4764 19.238C12.4764 19.4874 12.4764 19.9862 12.4764 20.2356C8.32037 20.1496 4.16018 20.227 0 20.1926V19.2982Z" fill="#0065B2"/>
<path d="M0 21.4174C4.16018 21.3486 8.31618 21.4604 12.4764 21.3572C12.4764 21.6066 12.4764 22.1054 12.4764 22.3548C8.32037 22.2688 4.16018 22.3462 0 22.3118V21.4174Z" fill="#0065B2"/>
<path d="M0 23.5211C4.16018 23.4523 8.31618 23.5641 12.4764 23.4609C12.4764 23.7103 12.4764 24.2091 12.4764 24.4585C8.32037 24.3725 4.16018 24.4499 0 24.4155V23.5211Z" fill="#0065B2"/>
<path d="M63.2264 13.2905C67.2052 12.6714 71.245 13.1185 75.25 12.9723L75.1542 13.8151C71.1841 13.5829 67.1008 14.3225 63.2264 13.2905Z" fill="#0065B2"/>
<path d="M53.5273 28.5216C53.6666 27.3434 53.3445 25.9244 54.4502 25.1074C57.7935 25.7352 61.1977 25.417 64.5671 25.4084C64.5759 26.449 64.5759 27.4982 64.5846 28.5388C60.893 28.5216 57.2102 28.5474 53.5273 28.5216Z" fill="#0065B2"/>
<path d="M65.9166 25.4184C69.5385 25.4872 73.1604 25.4958 76.7736 25.3926C76.7823 33.4593 76.7562 41.5173 76.791 49.584C73.1517 49.5496 69.5211 49.5496 65.8905 49.584C65.9341 41.5259 65.847 33.4679 65.9166 25.4184Z" fill="#0065B2"/>
<path d="M78.1057 25.2029C81.7363 25.4867 85.393 25.5555 89.0236 25.2631C89.0672 28.6858 88.9888 32.1086 89.0585 35.5313C90.8433 32.3408 93.995 30.1564 97.6605 29.6232C102.257 29.0728 107.194 29.0126 111.521 30.8788C114.342 32.1516 115.465 35.2905 116.031 38.0769C116.075 35.3937 115.996 32.702 115.918 30.0188C119.287 30.0102 122.657 30.0188 126.026 30.0016C125.983 30.8014 125.896 32.3924 125.852 33.1836C127.933 30.1994 131.537 29.1416 135.037 29.8984C135.02 33.4416 135.029 36.9847 135.037 40.5278C132.565 40.76 129.335 39.8571 127.498 41.9812C126.374 44.3376 127.132 47.0551 126.975 49.5663C123.292 49.5577 119.618 49.5577 115.935 49.5663C115.996 47.0379 116.083 44.501 115.97 41.9726C110.563 42.05 105.157 41.8952 99.75 42.093C100.368 43.2368 100.969 44.7074 102.519 44.802C106.976 45.404 111.382 44.1312 115.744 43.4088C114.908 45.146 114.098 46.9003 113.332 48.6719C107.159 49.9791 100.603 51.0971 94.4129 49.2911C92.0535 48.6977 90.4863 46.8057 88.9801 45.0686C88.9975 46.5649 89.0236 48.0699 89.0585 49.5749C85.4017 49.5577 81.745 49.5491 78.0883 49.5835C78.1231 41.4566 78.0796 33.3298 78.1057 25.2029ZM99.3669 37.8963C101.901 38.0081 104.434 37.9995 106.968 37.9049C106.759 33.476 99.8632 33.7597 99.3669 37.8963Z" fill="#0065B2"/>
<path d="M18.2748 26.0867C22.1753 26.0781 26.0671 26.0953 29.9676 26.0867C30.9776 29.5353 31.5522 33.1214 32.9539 36.4582C33.7811 32.9838 34.6952 29.5353 35.6704 26.1039C39.4925 26.0781 43.3233 26.0953 47.1455 26.0781C49.3134 33.2676 51.342 40.4915 53.388 47.7154C53.9452 41.7643 53.5012 35.7702 53.6231 29.8019C57.2798 29.8449 60.9278 29.8363 64.5845 29.8019C64.5758 36.3894 64.5758 42.9855 64.5845 49.573C57.0621 49.5558 49.5398 49.5472 42.0174 49.573C41.1816 45.8578 40.5547 42.0911 39.301 38.4791C38.3781 42.1685 37.5248 45.875 36.5671 49.5558C34.0771 49.5558 31.5957 49.5558 29.1057 49.5816C28.1219 45.8664 27.5124 42.0395 26.189 38.4189C25.4054 42.1427 24.648 45.875 23.7338 49.573C19.8159 49.5472 15.9067 49.5472 11.9888 49.5816C14.2437 41.7901 16.194 33.9212 18.2748 26.0867Z" fill="#0065B2"/>
<path d="M139.608 31.6621C139.87 31.9286 139.87 31.9286 139.608 31.6621V31.6621Z" fill="#0065B2"/>
<path d="M143.451 39.6951C142.783 39.6951 142.168 39.5824 141.605 39.3571C141.041 39.1231 140.552 38.8024 140.136 38.3951C139.72 37.9791 139.395 37.4894 139.161 36.9261C138.935 36.3627 138.823 35.7474 138.823 35.0801C138.823 34.4127 138.94 33.7974 139.174 33.2341C139.408 32.6707 139.728 32.1854 140.136 31.7781C140.552 31.3621 141.041 31.0414 141.605 30.8161C142.168 30.5821 142.783 30.4651 143.451 30.4651C144.118 30.4651 144.733 30.5821 145.297 30.8161C145.86 31.0414 146.345 31.3621 146.753 31.7781C147.169 32.1854 147.489 32.6707 147.715 33.2341C147.949 33.7974 148.066 34.4127 148.066 35.0801C148.066 35.7474 147.949 36.3627 147.715 36.9261C147.489 37.4894 147.169 37.9791 146.753 38.3951C146.345 38.8024 145.86 39.1231 145.297 39.3571C144.733 39.5824 144.118 39.6951 143.451 39.6951ZM143.451 38.9281C144.187 38.9281 144.837 38.7634 145.401 38.4341C145.973 38.0961 146.423 37.6367 146.753 37.0561C147.082 36.4754 147.247 35.8124 147.247 35.0671C147.247 34.3304 147.082 33.6717 146.753 33.0911C146.423 32.5104 145.973 32.0554 145.401 31.7261C144.837 31.3967 144.187 31.2321 143.451 31.2321C142.714 31.2321 142.055 31.3967 141.475 31.7261C140.903 32.0554 140.452 32.5104 140.123 33.0911C139.802 33.6717 139.642 34.3304 139.642 35.0671C139.642 35.8124 139.806 36.4754 140.136 37.0561C140.465 37.6367 140.916 38.0961 141.488 38.4341C142.06 38.7634 142.714 38.9281 143.451 38.9281ZM141.475 37.7451V32.3891H144.023C144.577 32.3891 144.998 32.5407 145.284 32.8441C145.57 33.1387 145.713 33.5287 145.713 34.0141C145.713 34.3607 145.635 34.6641 145.479 34.9241C145.331 35.1841 145.115 35.3877 144.829 35.5351L145.934 37.7451H144.712L143.75 35.7301H142.619V37.7451H141.475ZM142.619 34.8201H143.815C144.031 34.8201 144.209 34.7507 144.348 34.6121C144.486 34.4734 144.556 34.2827 144.556 34.0401C144.556 33.7974 144.486 33.6154 144.348 33.4941C144.218 33.3641 144.04 33.2991 143.815 33.2991H142.619V34.8201Z" fill="#0065B2"/>
</svg>
